<?xml version="1.0" standalone="no"?><!DOCTYPE svg PUBLIC "-//W3C//DTD SVG 1.1//EN" "http://www.w3.org/Graphics/SVG/1.1/DTD/svg11.dtd"><svg t="1746061803665" class="icon" viewBox="0 0 1024 1024" version="1.1" xmlns="http://www.w3.org/2000/svg" p-id="12178" xmlns:xlink="http://www.w3.org/1999/xlink" width="200" height="200"><path d="M866.461538 787.692308h78.769231v78.76923h-78.769231zM866.461538 708.923077h78.769231v78.769231h-78.769231zM787.692308 866.461538h78.76923v78.769231h-78.76923z" fill="#1E2028" p-id="12179"></path><path d="M787.692308 787.692308h78.76923v78.76923h-78.76923z" fill="#60EF9A" p-id="12180"></path><path d="M787.692308 708.923077h78.76923v78.769231h-78.76923zM787.692308 393.846154h78.76923v78.769231h-78.76923zM787.692308 315.076923h78.76923v78.769231h-78.76923zM787.692308 236.307692h78.76923v78.769231h-78.76923zM787.692308 157.538462h78.76923v78.76923h-78.76923zM787.692308 78.769231h78.76923v78.769231h-78.76923zM708.923077 866.461538h78.769231v78.769231h-78.769231z" fill="#1E2028" p-id="12181"></path><path d="M708.923077 787.692308h78.769231v78.76923h-78.769231z" fill="#60EF9A" p-id="12182"></path><path d="M708.923077 708.923077h78.769231v78.769231h-78.769231zM708.923077 472.615385h78.769231v78.76923h-78.769231z" fill="#1E2028" p-id="12183"></path><path d="M708.923077 393.846154h78.769231v78.769231h-78.769231zM708.923077 315.076923h78.769231v78.769231h-78.769231zM708.923077 236.307692h78.769231v78.769231h-78.769231zM708.923077 157.538462h78.769231v78.76923h-78.769231z" fill="#AF1441" p-id="12184"></path><path d="M708.923077 78.769231h78.769231v78.769231h-78.769231z" fill="#FF1A51" p-id="12185"></path><path d="M708.923077 0h78.769231v78.769231h-78.769231zM630.153846 866.461538h78.769231v78.769231h-78.769231z" fill="#1E2028" p-id="12186"></path><path d="M630.153846 787.692308h78.769231v78.76923h-78.769231z" fill="#60EF9A" p-id="12187"></path><path d="M630.153846 708.923077h78.769231v78.769231h-78.769231zM630.153846 551.384615h78.769231v78.769231h-78.769231z" fill="#1E2028" p-id="12188"></path><path d="M630.153846 472.615385h78.769231v78.76923h-78.769231z" fill="#AF1441" p-id="12189"></path><path d="M630.153846 393.846154h78.769231v78.769231h-78.769231zM630.153846 315.076923h78.769231v78.769231h-78.769231zM630.153846 236.307692h78.769231v78.769231h-78.769231zM630.153846 157.538462h78.769231v78.76923h-78.769231zM630.153846 78.769231h78.769231v78.769231h-78.769231z" fill="#FF1A51" p-id="12190"></path><path d="M630.153846 0h78.769231v78.769231h-78.769231zM551.384615 866.461538h78.769231v78.769231h-78.769231zM551.384615 787.692308h78.769231v78.76923h-78.769231zM551.384615 551.384615h78.769231v78.769231h-78.769231z" fill="#1E2028" p-id="12191"></path><path d="M551.384615 472.615385h78.769231v78.76923h-78.769231z" fill="#AF1441" p-id="12192"></path><path d="M551.384615 393.846154h78.769231v78.769231h-78.769231zM551.384615 315.076923h78.769231v78.769231h-78.769231zM551.384615 236.307692h78.769231v78.769231h-78.769231z" fill="#FF1A51" p-id="12193"></path><path d="M551.384615 157.538462h78.769231v78.76923h-78.769231z" fill="#AF1441" p-id="12194"></path><path d="M551.384615 78.769231h78.769231v78.769231h-78.769231z" fill="#FF1A51" p-id="12195"></path><path d="M551.384615 0h78.769231v78.769231h-78.769231zM472.615385 945.230769h78.76923v78.769231h-78.76923zM472.615385 866.461538h78.76923v78.769231h-78.76923zM472.615385 787.692308h78.76923v78.76923h-78.76923zM472.615385 708.923077h78.76923v78.769231h-78.76923zM472.615385 630.153846h78.76923v78.769231h-78.76923zM472.615385 551.384615h78.76923v78.769231h-78.76923z" fill="#1E2028" p-id="12196"></path><path d="M472.615385 472.615385h78.76923v78.76923h-78.76923z" fill="#AF1441" p-id="12197"></path><path d="M472.615385 393.846154h78.76923v78.769231h-78.76923zM472.615385 315.076923h78.76923v78.769231h-78.76923zM472.615385 236.307692h78.76923v78.769231h-78.76923z" fill="#FF1A51" p-id="12198"></path><path d="M472.615385 157.538462h78.76923v78.76923h-78.76923zM472.615385 78.769231h78.76923v78.769231h-78.76923z" fill="#AF1441" p-id="12199"></path><path d="M472.615385 0h78.76923v78.769231h-78.76923zM393.846154 866.461538h78.769231v78.769231h-78.769231zM393.846154 787.692308h78.769231v78.76923h-78.769231zM393.846154 551.384615h78.769231v78.769231h-78.769231z" fill="#1E2028" p-id="12200"></path><path d="M393.846154 472.615385h78.769231v78.76923h-78.769231z" fill="#AF1441" p-id="12201"></path><path d="M393.846154 393.846154h78.769231v78.769231h-78.769231zM393.846154 315.076923h78.769231v78.769231h-78.769231zM393.846154 236.307692h78.769231v78.769231h-78.769231z" fill="#FF1A51" p-id="12202"></path><path d="M393.846154 157.538462h78.769231v78.76923h-78.769231z" fill="#AF1441" p-id="12203"></path><path d="M393.846154 78.769231h78.769231v78.769231h-78.769231z" fill="#FF1A51" p-id="12204"></path><path d="M393.846154 0h78.769231v78.769231h-78.769231zM315.076923 866.461538h78.769231v78.769231h-78.769231z" fill="#1E2028" p-id="12205"></path><path d="M315.076923 787.692308h78.769231v78.76923h-78.769231z" fill="#60EF9A" p-id="12206"></path><path d="M315.076923 708.923077h78.769231v78.769231h-78.769231zM315.076923 551.384615h78.769231v78.769231h-78.769231z" fill="#1E2028" p-id="12207"></path><path d="M315.076923 472.615385h78.769231v78.76923h-78.769231z" fill="#F4608A" p-id="12208"></path><path d="M315.076923 393.846154h78.769231v78.769231h-78.769231zM315.076923 315.076923h78.769231v78.769231h-78.769231zM315.076923 236.307692h78.769231v78.769231h-78.769231zM315.076923 157.538462h78.769231v78.76923h-78.769231zM315.076923 78.769231h78.769231v78.769231h-78.769231z" fill="#FF1A51" p-id="12209"></path><path d="M315.076923 0h78.769231v78.769231h-78.769231zM236.307692 866.461538h78.769231v78.769231h-78.769231z" fill="#1E2028" p-id="12210"></path><path d="M236.307692 787.692308h78.769231v78.76923h-78.769231z" fill="#60EF9A" p-id="12211"></path><path d="M236.307692 708.923077h78.769231v78.769231h-78.769231zM236.307692 472.615385h78.769231v78.76923h-78.769231z" fill="#1E2028" p-id="12212"></path><path d="M236.307692 393.846154h78.769231v78.769231h-78.769231zM236.307692 315.076923h78.769231v78.769231h-78.769231zM236.307692 236.307692h78.769231v78.769231h-78.769231zM236.307692 157.538462h78.769231v78.76923h-78.769231zM236.307692 78.769231h78.769231v78.769231h-78.769231z" fill="#F4608A" p-id="12213"></path><path d="M236.307692 0h78.769231v78.769231h-78.769231zM157.538462 866.461538h78.76923v78.769231H157.538462z" fill="#1E2028" p-id="12214"></path><path d="M157.538462 787.692308h78.76923v78.76923H157.538462z" fill="#60EF9A" p-id="12215"></path><path d="M157.538462 708.923077h78.76923v78.769231H157.538462zM157.538462 393.846154h78.76923v78.769231H157.538462zM157.538462 315.076923h78.76923v78.769231H157.538462zM157.538462 236.307692h78.76923v78.769231H157.538462zM157.538462 157.538462h78.76923v78.76923H157.538462zM157.538462 78.769231h78.76923v78.769231H157.538462zM78.769231 787.692308h78.769231v78.76923H78.769231zM78.769231 708.923077h78.769231v78.769231H78.769231z" fill="#1E2028" p-id="12216"></path></svg>